/* XPM */
static char * xpm[] = {
"13 13 3 1",
" 	c None",
".	c #939393 s active_color_1",
"@	c #eeeeee s active_color_2",
".@@@@        ",
".@@@@        ",
".@@@@        ",
".@@@@        ",
".@@@@        ",
".@@@@        ",
".@@@@        ",
".@@@@        ",
".@@@@@@@@@@@@",
".@@@@@@@@@@@@",
".@@@@@@@@@@@@",
".@@@@@@@@@@@@",
"............."};
