/* XPM */
static char * xpm[] = {
"7 39 4 1",
" 	c None",
".	c #939393 s active_color_1",
"+	c #f8f8f8 s inactive_color_1",
"@	c #CECECE s active_color_2",
".....  ",
"+++++. ",
"@@@@@@.",
"@@@@@@.",
"@@@@@@.",
"@@@@@@.",
"@@@@@@.",
"@@@@@@.",
"@@@@@@.",
"@@@@@@.",
"@@@@@@.",
"@@@@@@.",
"@@@@@@.",
"@@@@@@.",
"@@@@@@.",
"@@@@@@.",
"@@@@@@.",
"@@@@@@.",
"@@@@@@.",
"@@@@@@.",
"@@@@@@.",
"@@@@@@.",
"@@@@@@.",
"@@@@@@.",
"@@@@@@.",
"@@@@@@.",
"@@@@@@.",
"@@@@@@.",
"@@@@@@.",
"@@@@@@.",
"@@@@@@.",
"@@@@@@.",
"@@@@@@.",
"@@@@@@.",
"@@@@@@.",
"@@@@@@.",
"@@@@@@.",
"@@@@@@.",
"@@@@@@." }
