/* XPM */
static char * xpm[] = {
"2 7 3 1",
" 	c None",
".	c #eeeeee s active_color_1",
"@	c #939393 s active_color_2",
"@@",
"@@",
"@@",
"@@",
"@@",
"@@",
".."};
