/* XPM */
static char * xpm[] = {
"26 34 7 1",
" 	c None",
"# c #4444ee",
"^ c #4444ee",
"$ c #0000ff s active_hilight_2",
".	c #939393 s active_color_1",
"+	c #f8f8f8 s inactive_color_1",
"@	c #CECECE s active_color_2",
"..........................",
"++++++++++++++++++++++++++",
"@@@@@@@@@@@@@@@@@@@@@@@@@@",
"@@@@@@@@@@@@@@@@@@@@@@@@@@",
"@@@@@@@@@@@@@@@@@@@@@@@@@@",
"@@@@@@@@@@@@@@@@@@@@@@@@@@",
"@@@@@@@@@@@@@@@@@@@@@@@@@@",
"@@@@@@@@@@@@@@@@@@@@@@@@@@",
"@@@@@@@@@@@@@@@@@@@@@@@@@@",
"@@@@@@@@@@@@@@@@@@@@@@@@@@",
"@@@@@@@@@@@@@@@@@@@@@@@@@@",
"@@@@@@@@@@@@@@@@@@@@@@@@@@",
"@@@@@@@@@@@@@@@@@@@@@@@@@@",
"@@@@@@@@@@^^^^^^^^^@@@@@@@",
"@@@@@@@@@@#########@@@@@@@",
"@@@@@@@@@@#@@@@@@@#@@@@@@@",
"@@@@@@@@@@#@@@@@@@#@@@@@@@",
"@@@@@@@@@@#@@@@@@@#@@@@@@@",
"@@@@@@@^^^^^^^^@@@#@@@@@@@",
"@@@@@@@########@@@#@@@@@@@",
"@@@@@@@#@@@@@@#@@@#@@@@@@@",
"@@@@@@@#@@@@@@#####@@@@@@@",
"@@@@@@@#@@@@@@#$$$$@@@@@@@",
"@@@@@@@########@@@@@@@@@@@",
"@@@@@@@$$$$$$$$@@@@@@@@@@@",
"@@@@@@@@@@@@@@@@@@@@@@@@@@",
"@@@@@@@@@@@@@@@@@@@@@@@@@@",
"@@@@@@@@@@@@@@@@@@@@@@@@@@",
"@@@@@@@@@@@@@@@@@@@@@@@@@@",
"@@@@@@@@@@@@@@@@@@@@@@@@@@",
"@@@@@@@@@@@@@@@@@@@@@@@@@@",
"@@@@@@@@@@@@@@@@@@@@@@@@@@",
"@@@@@@@@@@@@@@@@@@@@@@@@@@",
"@@@@@@@@@@@@@@@@@@@@@@@@@@"};
